<svg xmlns="http://www.w3.org/2000/svg" viewBox="0 0 1200 630" width="1200" height="630">
  <defs>
    <linearGradient id="ogBg" x1="0%" y1="0%" x2="100%" y2="100%">
      <stop offset="0%" style="stop-color:#667eea"/>
      <stop offset="50%" style="stop-color:#6a7eea"/>
      <stop offset="100%" style="stop-color:#764ba2"/>
    </linearGradient>
    <filter id="textShadow">
      <feDropShadow dx="2" dy="2" stdDeviation="3" flood-color="rgba(0,0,0,0.5)"/>
    </filter>
  </defs>
  
  <!-- ุงูุฎูููุฉ -->
  <rect width="1200" height="630" fill="url(#ogBg)"/>
  
  <!-- ููุท ุงูุฎูููุฉ -->
  <g opacity="0.1">
    <circle cx="100" cy="100" r="50" fill="white"/>
    <circle cx="300" cy="200" r="30" fill="white"/>
    <circle cx="500" cy="150" r="40" fill="white"/>
    <circle cx="700" cy="250" r="25" fill="white"/>
    <circle cx="900" cy="180" r="35" fill="white"/>
    <circle cx="1100" cy="120" r="45" fill="white"/>
    <circle cx="200" cy="400" r="35" fill="white"/>
    <circle cx="400" cy="500" r="30" fill="white"/>
    <circle cx="600" cy="450" r="40" fill="white"/>
    <circle cx="800" cy="520" r="25" fill="white"/>
    <circle cx="1000" cy="480" r="30" fill="white"/>
  </g>
  
  <!-- ุงูุฃููููุฉ ุงููุฑูุฒูุฉ -->
  <g transform="translate(100, 200)">
    <!-- ุฌุณู ุงููุงููุฑุง -->
    <rect x="0" y="0" width="200" height="130" rx="20" fill="white" opacity="0.9"/>
    
    <!-- ุงูุนุฏุณุฉ -->
    <circle cx="100" cy="65" r="45" fill="none" stroke="white" stroke-width="6"/>
    <circle cx="100" cy="65" r="30" fill="white" opacity="0.7"/>
    
    <!-- ุงูููุงุด -->
    <rect x="30" y="-30" width="30" height="15" rx="7" fill="white"/>
    
    <!-- ุฒุฑ ุงูุชุตููุฑ -->
    <circle cx="160" cy="25" r="8" fill="white"/>
  </g>
  
  <!-- ุงููุต -->
  <g fill="white" filter="url(#textShadow)">
    <!-- ุงูุนููุงู ุงูุฑุฆูุณู -->
    <text x="400" y="280" font-family="Arial, sans-serif" font-size="72" font-weight="bold">ูุนุฑุถ ุงูุตูุฑ</text>
    
    <!-- ุงูุนููุงู ุงููุฑุนู -->
    <text x="400" y="340" font-family="Arial, sans-serif" font-size="36" opacity="0.9">ููุตุฉ ูุดุงุฑูุฉ ุงูุฅุจุฏุงุน ุงูุนุงูููุฉ</text>
    
    <!-- ุงููุตู -->
    <text x="400" y="420" font-family="Arial, sans-serif" font-size="28" opacity="0.8">ุงูุชุดู ููุดุงุฑู ุฃุฌูู ุงูุตูุฑ ูู ุญูู ุงูุนุงูู</text>
    
    <!-- ุงูุฅุญุตุงุฆูุงุช -->
    <text x="400" y="500" font-family="Arial, sans-serif" font-size="24" opacity="0.7">10K+ ูุณุชุฎุฏู | 500K+ ุตูุฑุฉ | 150+ ุฏููุฉ</text>
  </g>
  
  <!-- ุงูุดุนุงุฑ ูู ุงูุฒุงููุฉ -->
  <g transform="translate(1050, 550)">
    <circle r="30" fill="white" opacity="0.2"/>
    <text x="0" y="10" text-anchor="middle" font-family="Arial, sans-serif" font-size="24" fill="white">๐ธ</text>
  </g>
</svg>
